<svg width="160" height="249" viewBox="0 0 160 249" fill="none" xmlns="http://www.w3.org/2000/svg">
<path d="M27.7696 201.848L25.7196 211.984L63.8409 224.716L66.8669 209.755L27.7696 201.848Z" fill="#FFB6B6"/>
<path d="M31.6021 199.932L27.5644 219.894L27.5643 219.895C26.8816 223.268 24.8867 226.233 22.0184 228.136C19.1502 230.039 15.6434 230.725 12.2696 230.042L11.8562 229.959L18.4671 197.275L31.6021 199.932Z" fill="#2F2E41"/>
<path d="M70.969 62.2246C85.2646 62.2246 96.8534 50.6358 96.8534 36.3402C96.8534 22.0446 85.2646 10.4558 70.969 10.4558C56.6734 10.4558 45.0846 22.0446 45.0846 36.3402C45.0846 50.6358 56.6734 62.2246 70.969 62.2246Z" fill="#FEB8B8"/>
<path d="M95.1453 14.0092C91.2753 7.72506 85.2177 3.09449 78.1383 1.00889L74.9606 3.32781V0.316751C73.2604 0.0565345 71.5396 -0.0437102 69.8207 0.0173393L67.0791 2.49795V0.223437C63.02 0.727855 59.1093 2.06785 55.5938 4.15892C52.0783 6.25 49.0342 9.04679 46.6535 12.3729C40.6997 20.956 39.6947 32.8969 45.5506 41.5489C47.158 36.6086 49.1091 31.9733 50.7169 27.0335C51.9804 27.2057 53.2609 27.212 54.5259 27.052L56.4816 22.4885L57.028 26.8589C63.09 26.3309 72.0813 25.1712 77.8279 24.1088L77.269 20.7559L80.6124 23.5419C82.373 23.1367 83.4184 22.7689 83.3321 22.488C87.6061 29.3784 92.8368 33.7792 97.1104 40.6696C98.7337 30.9538 100.602 22.8752 95.1453 14.0092Z" fill="#2F2E41"/>
<path d="M79.3908 205.722C116.2 205.722 146.039 197.376 146.039 187.08C146.039 176.784 116.2 168.437 79.3908 168.437C42.5818 168.437 12.7423 176.784 12.7423 187.08C12.7423 197.376 42.5818 205.722 79.3908 205.722Z" fill="#2F2E41"/>
<path d="M126.639 102.903C125.749 97.5479 124.831 92.0902 122.342 87.2662C120.706 84.1064 118.11 81.0954 114.61 80.4706C113.92 80.4091 113.243 80.2523 112.596 80.0045C111.571 79.5105 97.7889 71.643 95.5984 70.2727C93.7176 69.0964 90.7486 66.9182 89.2515 66.9182C87.7455 66.8851 81.9705 68.2292 59.4303 66.4672C55.6388 67.9891 51.9673 69.7943 48.4468 71.8674C48.3742 71.8196 25.0521 84.3435 24.1759 84.3105C22.5165 84.2406 20.9742 85.303 20.0229 86.6409C19.0719 87.9788 18.6258 89.635 18.1587 91.2364C23.2526 102.58 27.9134 113.939 33.0078 125.283C33.2463 125.71 33.3731 126.191 33.3762 126.68C33.2738 127.188 33.0571 127.666 32.7425 128.078C30.2442 132.091 30.3237 137.138 30.5966 141.855C30.8697 146.572 31.2074 151.554 29.0995 155.781C28.5262 156.942 27.7806 158.005 27.2353 159.165C25.9582 161.794 25.4968 170.202 26.2426 173.026L119.691 175.704C117.682 170.18 126.639 102.903 126.639 102.903Z" fill="#B2CAE2"/>
<path d="M10.0811 125.786C9.89462 127.135 9.87585 128.502 10.0252 129.855L11.3646 149.09C11.4903 150.903 11.6141 152.711 11.7842 154.52C12.1056 158.029 12.5856 161.511 13.1815 164.988C13.1949 165.481 13.4037 165.949 13.7619 166.289C14.1201 166.629 14.5985 166.813 15.0922 166.801C20.9881 168.048 27.0795 167.998 33.0967 167.658C42.2785 167.146 65.7692 166.176 67.2043 164.312C68.6395 162.448 67.8032 159.432 65.9319 157.925C64.0606 156.417 33.0612 152.742 33.0612 152.742C33.3641 150.342 34.2778 148.081 35.1446 145.802C36.7015 141.76 38.1557 137.585 38.1836 133.255C38.2116 128.925 36.5803 124.373 33.0333 121.892C30.1155 119.856 26.359 119.478 22.8035 119.562C20.2166 119.636 15.7469 119.016 13.3841 120.028C11.5143 120.851 10.4304 123.955 10.0811 125.786Z" fill="#FBBEBE"/>
<path d="M126.805 169.267C128.357 168.675 130.067 168.889 131.731 169.113C137.086 169.845 142.521 170.595 147.484 172.734C149.815 173.732 152.033 175.065 153.609 177.026C155.006 178.792 155.823 180.955 156.596 183.085L158.386 187.988C159.147 189.83 159.672 191.761 159.948 193.735C160.507 199.603 156.494 205.135 151.447 208.184C146.399 211.232 140.457 212.317 134.668 213.455C128.879 214.592 123.067 215.85 117.302 217.183C114.613 217.881 111.885 218.418 109.132 218.791C102.961 219.49 96.5106 218.46 90.6471 220.502C88.3167 221.318 86.0283 222.529 83.611 223.093C82.0042 223.431 80.3797 223.679 78.7451 223.834L67.648 225.102C65.3915 225.403 63.1197 225.578 60.8435 225.624C55.9965 225.624 51.2285 224.476 46.5217 223.328C46.0216 223.24 45.5456 223.048 45.1245 222.764C44.379 222.177 44.2158 221.137 44.1085 220.196C43.6331 216.03 43.2173 211.858 42.861 207.682C42.7492 206.326 42.6653 204.858 43.4064 203.716C44.3385 202.319 46.1565 201.88 47.8157 201.609C54.8514 200.458 61.9789 199.964 69.1062 200.132C71.8138 197.424 76.279 197.41 79.826 195.937C81.1309 195.338 82.3937 194.651 83.606 193.882C89.9505 190.18 97.0406 187.94 104.36 187.324C105.794 187.28 107.218 187.077 108.606 186.718C111.351 185.866 113.854 183.544 116.674 184.113C117.023 183.148 117.266 181.857 118.071 181.195C118.47 180.855 118.966 180.627 119.334 180.263C120.112 179.476 120.182 178.236 120.066 177.136C119.949 176.036 119.688 174.908 119.972 173.836C120.091 173.43 120.265 173.042 120.49 172.685C121.883 170.273 123.994 169.034 126.805 169.267Z" fill="#2F2E41"/>
<path d="M17.8893 91.5817C17.4353 92.057 17.0833 92.6201 16.8548 93.2364C13.0874 101.727 10.8622 110.821 10.2833 120.091C10.2934 120.543 10.1892 120.991 9.98037 121.392C9.77439 121.659 9.5451 121.907 9.29522 122.133C9.07737 122.391 8.91251 122.69 8.81007 123.012C8.70763 123.334 8.66961 123.673 8.69818 124.009C8.72675 124.346 8.82136 124.674 8.97659 124.974C9.13183 125.274 9.34466 125.541 9.60293 125.759C9.64529 125.794 9.68876 125.829 9.73335 125.862C10.5023 124.414 12.3432 123.941 13.9795 123.816C21.814 123.196 29.4669 126.841 37.3249 126.566C36.7705 124.65 35.9731 122.809 35.521 120.87C33.5214 112.262 38.5086 102.889 35.4511 94.5977C34.8403 92.9385 33.8198 91.3072 32.212 90.5802C31.5462 90.3116 30.8495 90.1272 30.1381 90.0313C28.1525 89.6725 24.1998 88.139 22.2801 88.7543C21.5715 88.9828 21.292 89.649 20.7047 90.0517C19.8125 90.6216 18.6288 90.8312 17.8893 91.5817Z" fill="#B2CAE2"/>
<path d="M126.695 120.028C124.332 119.016 119.862 119.636 117.275 119.562C113.72 119.478 109.963 119.856 107.046 121.892C103.499 124.373 101.867 128.925 101.895 133.255C101.923 137.585 103.377 141.76 104.934 145.802C105.801 148.081 106.715 150.342 107.018 152.742C107.018 152.742 76.0184 156.417 74.1471 157.925C72.2758 159.432 71.4394 162.448 72.8746 164.312C74.3097 166.176 119.091 168.048 124.987 166.801C125.48 166.813 125.959 166.629 126.317 166.289C126.675 165.949 126.884 165.481 126.897 164.988C127.493 161.511 127.973 158.029 128.295 154.52C128.465 152.711 128.589 150.903 128.714 149.09L130.054 129.855C130.203 128.502 130.184 127.135 129.998 125.786C129.649 123.955 128.565 120.851 126.695 120.028Z" fill="#FBBEBE"/>
<path d="M119.374 90.0517C118.787 89.649 118.508 88.9828 117.799 88.7543C115.879 88.139 111.927 89.6725 109.941 90.0313C109.23 90.1272 108.533 90.3116 107.867 90.5802C106.259 91.3072 105.239 92.9385 104.628 94.5977C101.57 102.889 106.558 112.262 104.558 120.87C104.106 122.809 103.309 124.65 102.754 126.566C110.612 126.841 118.265 123.196 126.1 123.816C127.736 123.941 129.577 124.414 130.346 125.862C130.39 125.829 130.434 125.794 130.476 125.759C130.734 125.541 130.947 125.274 131.102 124.974C131.258 124.674 131.352 124.346 131.381 124.009C131.409 123.673 131.371 123.334 131.269 123.012C131.167 122.69 131.002 122.391 130.784 122.133C130.534 121.907 130.305 121.659 130.099 121.392C129.89 120.991 129.786 120.543 129.796 120.091C129.217 110.821 126.992 101.727 123.224 93.2364C122.996 92.6201 122.644 92.057 122.19 91.5817C121.45 90.8312 120.267 90.6216 119.374 90.0517Z" fill="#B2CAE2"/>
<path d="M132.479 216.317L131.117 226.569L90.9274 226.192L92.9384 211.062L132.479 216.317Z" fill="#FFB6B6"/>
<path d="M142.764 215.024L138.371 248.078L137.953 248.023C134.541 247.569 131.448 245.779 129.356 243.045C127.264 240.312 126.343 236.86 126.796 233.447L126.797 233.447L129.48 213.258L142.764 215.024Z" fill="#2F2E41"/>
<path d="M37.9292 174.455C37.9292 174.921 37.1976 174.455 37.1307 173.956C36.6183 170.185 33.6257 167.076 30.1395 165.566C26.6534 164.056 22.6823 163.977 18.9072 164.336C13.198 164.876 6.78913 167.062 4.70126 172.399C4.20723 173.646 -0.420632 184.754 0.0309766 187.252C1.24758 193.917 5.80558 199.617 11.3287 203.565C16.8518 207.513 23.305 209.871 29.7423 211.998C46.7618 217.612 64.2236 221.782 81.9428 224.466C84.8136 224.9 87.7129 225.3 90.4625 226.223C92.9231 227.048 95.2256 228.283 97.6308 229.252C103.224 231.498 109.241 232.3 115.202 233.088C116.218 233.219 117.383 233.312 118.133 232.622C119.103 231.724 118.782 230.157 118.506 228.866C117.494 223.957 118.343 218.847 120.888 214.529C121.886 212.852 123.183 211.132 122.995 209.19C122.771 206.925 120.515 205.322 118.269 204.958C116.022 204.594 113.739 205.131 111.482 205.424C110.709 205.602 109.898 205.521 109.175 205.195C108.84 204.969 108.536 204.7 108.271 204.394C106.717 202.895 104.728 201.926 102.589 201.628C100.451 201.329 98.2728 201.715 96.3673 202.73C95.533 203.196 94.2715 202.157 93.4032 201.766L83.6015 197.328C72.3412 192.234 61.0251 187.117 49.1121 183.891C48.1615 183.705 47.2581 183.329 46.4553 182.787C45.8635 182.321 45.4394 181.689 44.8939 181.169C43.7053 180.046 42.0495 179.598 40.6248 178.802C39.2002 178.005 37.6028 176.053 37.9292 174.455Z" fill="#2F2E41"/>
<path d="M63.3027 167.719C67.1611 167.719 70.289 164.591 70.289 160.733C70.289 156.875 67.1611 153.747 63.3027 153.747C59.4444 153.747 56.3165 156.875 56.3165 160.733C56.3165 164.591 59.4444 167.719 63.3027 167.719Z" fill="#FBBEBE"/>
<path d="M78.7722 167.719C82.6306 167.719 85.7584 164.591 85.7584 160.733C85.7584 156.875 82.6306 153.747 78.7722 153.747C74.9138 153.747 71.786 156.875 71.786 160.733C71.786 164.591 74.9138 167.719 78.7722 167.719Z" fill="#FBBEBE"/>
<path d="M121.896 176.476H25.9165C24.7959 176.474 23.7216 176.029 22.9292 175.236C22.1368 174.444 21.691 173.37 21.6897 172.249V114.021C21.691 112.9 22.1368 111.826 22.9292 111.034C23.7216 110.241 24.7959 109.796 25.9165 109.794H121.896C123.017 109.796 124.091 110.241 124.884 111.034C125.676 111.826 126.122 112.9 126.123 114.021V172.249C126.122 173.37 125.676 174.444 124.884 175.236C124.091 176.029 123.017 176.474 121.896 176.476Z" fill="#3F3D56"/>
<path d="M73.6737 145.931C75.2181 145.931 76.4702 144.679 76.4702 143.135C76.4702 141.591 75.2181 140.338 73.6737 140.338C72.1292 140.338 70.8772 141.591 70.8772 143.135C70.8772 144.679 72.1292 145.931 73.6737 145.931Z" fill="white"/>
</svg>
